<?xml version="1.0" encoding="iso-8859-1"?>
<!-- Generator: Adobe Illustrator 16.0.0, SVG Export Plug-In . SVG Version: 6.00 Build 0)  -->
<!DOCTYPE svg PUBLIC "-//W3C//DTD SVG 1.1//EN" "http://www.w3.org/Graphics/SVG/1.1/DTD/svg11.dtd">
<svg version="1.1" id="Layer_1" xmlns="http://www.w3.org/2000/svg" xmlns:xlink="http://www.w3.org/1999/xlink" x="0px" y="0px"
	 width="192.756px" height="192.756px" viewBox="0 0 192.756 192.756" style="enable-background:new 0 0 192.756 192.756;"
	 xml:space="preserve">
<g>
	<polygon style="fill-rule:evenodd;clip-rule:evenodd;fill:#FFFFFF;" points="0,0 192.756,0 192.756,192.756 0,192.756 0,0 	"/>
	<path style="fill-rule:evenodd;clip-rule:evenodd;" d="M186.445,100.961c0.596,0,1.168,0.148,1.715,0.449
		c0.549,0.297,0.979,0.725,1.291,1.279c0.312,0.559,0.469,1.141,0.469,1.748c0,0.605-0.152,1.184-0.459,1.732
		c-0.309,0.547-0.736,0.977-1.285,1.283s-1.127,0.459-1.73,0.459c-0.605,0-1.182-0.152-1.732-0.459
		c-0.547-0.307-0.977-0.736-1.283-1.283c-0.307-0.549-0.461-1.127-0.461-1.732c0-0.607,0.156-1.189,0.471-1.748
		c0.312-0.555,0.742-0.982,1.289-1.279C185.277,101.109,185.85,100.961,186.445,100.961L186.445,100.961z M186.449,101.643
		c-0.479,0-0.936,0.119-1.375,0.357c-0.438,0.24-0.783,0.584-1.035,1.031c-0.254,0.447-0.381,0.916-0.381,1.406
		c0,0.488,0.125,0.953,0.371,1.395s0.59,0.785,1.031,1.033s0.904,0.373,1.389,0.373c0.486,0,0.949-0.125,1.391-0.373
		s0.785-0.592,1.033-1.033c0.246-0.441,0.371-0.906,0.371-1.395c0-0.49-0.125-0.959-0.379-1.406
		c-0.252-0.447-0.598-0.791-1.039-1.031C187.387,101.762,186.928,101.643,186.449,101.643L186.449,101.643z M184.875,106.297v-3.688
		h0.75c0.701,0,1.094,0.004,1.178,0.01c0.248,0.02,0.441,0.07,0.58,0.146c0.137,0.078,0.252,0.195,0.344,0.354
		c0.092,0.16,0.139,0.336,0.139,0.529c0,0.266-0.086,0.492-0.262,0.682c-0.174,0.191-0.418,0.307-0.732,0.354
		c0.111,0.041,0.197,0.088,0.258,0.139c0.061,0.049,0.145,0.143,0.25,0.283c0.027,0.035,0.117,0.186,0.273,0.449l0.436,0.742h-0.926
		l-0.311-0.598c-0.207-0.402-0.381-0.656-0.516-0.76s-0.309-0.156-0.518-0.156h-0.193v1.514H184.875L184.875,106.297z
		 M185.625,104.201h0.303c0.432,0,0.701-0.016,0.805-0.049c0.105-0.033,0.188-0.092,0.248-0.176c0.061-0.082,0.09-0.178,0.09-0.283
		c0-0.104-0.029-0.195-0.088-0.273c-0.059-0.08-0.143-0.139-0.252-0.174c-0.109-0.033-0.377-0.051-0.803-0.051h-0.303V104.201
		L185.625,104.201z"/>
	<polygon style="fill-rule:evenodd;clip-rule:evenodd;fill:#929496;" points="2.834,110.158 180.885,110.158 180.885,111.178 
		2.834,111.178 2.834,110.158 	"/>
	<path style="fill-rule:evenodd;clip-rule:evenodd;fill:#33348E;" d="M158.449,101.078l6.146-0.014
		c0.613-0.002,1.197,0.281,1.531,0.9c0.701,1.299,1.471,1.727,3.117,1.727c1.189,0,2.949-0.479,2.949-1.961
		c0-1.723-2.865-1.934-4.025-2.156c-2.578-0.488-4.369-0.93-5.371-1.344c-1.002-0.416-1.85-1.111-2.533-2.09
		c-0.691-0.977-1.033-2.094-1.033-3.353c0-5.273,5.096-6.513,9.41-6.513c4.793,0,8.266,1.486,10.008,6.301l-6.436,0.018
		c-0.582,0.002-1.123-0.603-1.277-0.847c-0.553-0.87-1.496-1.255-2.662-1.255c-1.053,0-2.402,0.342-2.402,1.647
		c0,1.607,2.852,1.729,3.902,1.868c2.465,0.301,4.301,0.716,5.502,1.251c1.207,0.536,2.129,1.299,2.764,2.295
		c0.641,0.992,0.957,2.082,0.957,3.273c0,1.205-0.338,2.375-1.014,3.514c-1.844,3.113-5.23,3.723-8.514,3.723
		c-5.309,0-9.568-1.012-11.02-6.316v1.396c0,0.977,0.061,1.748,0.176,2.303c0.115,0.557,0.549,1.266,1.246,2.129h-7.27
		c-0.279-0.535-0.461-0.943-0.547-1.225c-0.088-0.281-0.168-0.725-0.256-1.326c-0.971,1.012-1.941,1.727-2.9,2.156
		c-1.312,0.574-2.838,0.863-4.574,0.863c-3.729,0-6.508-1.889-6.508-5.979c0-3.932,1.988-6.417,5.58-6.788
		c2.85-0.293,5.301-0.135,6.029-0.594c0.668-0.421,1.453-1.183,1.451-2.131c0-1.034-0.734-1.583-2.053-1.531
		c-0.926,0.036-1.631,0.28-2.152,0.778c-0.832,0.794-1.812,1.31-2.637,1.262l-5.086-0.008c0.898-4.832,5.186-6.778,10.129-6.778
		c4.639,0,9.371,2.381,9.371,7.671V101.078L158.449,101.078z M150.062,98.682c-0.82,0.328-1.676,0.619-2.559,0.869
		c-1.154,0.34-2.801,0.799-2.801,2.283c0,1.172,0.818,1.777,1.936,1.777c1.232,0,2.535-0.711,3.068-1.85
		c0.24-0.518,0.355-1.191,0.355-2.016V98.682L150.062,98.682z"/>
	<path style="fill-rule:evenodd;clip-rule:evenodd;fill:#CC2229;" d="M125.484,98.947v-2.902c0-1.584,1.041-2.957,3.805-2.957h9.271
		v5.269c-2.475,6.18-7.859,9.705-13.162,9.705c-9.223,0-13.996-7.898-13.996-13.46c0-6.083,4.373-12.959,13.646-12.959
		c6.408,0,11.234,3.203,12.961,9.199h-7.967c-0.678-2.022-2.488-3.989-4.795-3.989c-3.734,0-5.189,4.081-5.189,7.658
		c0,3.846,1.512,8.411,5.426,8.485c2.541,0.049,4.254-2.053,4.697-4.049H125.484L125.484,98.947z"/>
	<path style="fill-rule:evenodd;clip-rule:evenodd;fill:#33348E;" d="M104.027,86.75h7.602v20.824h-2.305
		c-2.994,0-5.297-1.361-5.297-3.475V86.75L104.027,86.75z M32.297,86.75h7.129v3.039c1.031-1.272,2.062-2.169,3.106-2.711
		c1.044-0.536,2.306-0.803,3.786-0.803c1.588,0,2.844,0.295,3.766,0.884c0.929,0.589,1.685,1.466,2.274,2.631
		c1.198-1.359,2.292-2.29,3.286-2.778c0.986-0.488,2.203-0.736,3.657-0.736c2.14,0,3.811,0.663,5.009,1.995
		c1.204,1.325,1.8,3.4,1.8,6.225v1.302c0.568-5.829,4.714-9.521,10.874-9.521c5.85,0,9.488,2.386,10.86,6.921V86.75h6.945v4.378
		c0.801-3.024,2.394-4.5,4.97-4.5c1.096,0,1.85-0.073,2.885,0.038v5.601c-1.121,3.721-7.344,0.931-7.344,4.527v10.779h-2.344
		c-2.935,0-5.112-1.746-5.112-3.887v-2.527c-2.135,4.199-5.925,6.883-10.643,6.883c-6.345,0-10.522-3.25-11.092-9.367v8.898h-2.292
		c-3.163,0-5.362-1.812-5.362-4.004v-8.564c0-1.445-0.648-3.179-2.44-3.179c-2.478,0-2.998,2.366-2.998,4.297v11.45h-2.299
		c-3.745,0-5.362-1.953-5.362-4.18v-8c0-1.595-0.269-3.608-2.402-3.608c-2.504,0-3.004,2.537-3.004,4.452v11.336h-7.654V86.75
		L32.297,86.75z M85.022,98.787H73.592c0.223,2.191,1.612,4.039,4.125,4.039c2.041,0,3.138-1.176,3.55-2.695l6.578,0.016V96.74
		C87.314,97.799,86.309,98.787,85.022,98.787L85.022,98.787z M80.031,92.181C79.734,91.312,78.316,91,77.295,91
		c-1.183,0-2.121,0.51-2.832,1.513c-0.447,0.63-1,2.178-1.118,3.423C75.511,93.905,81.161,95.494,80.031,92.181L80.031,92.181z"/>
	<path style="fill-rule:evenodd;clip-rule:evenodd;fill:#CC2229;" d="M23.477,103.32h-9.764l-1.295,4.299H3.803l10.398-26.041h8.829
		l10.493,26.041h-8.468L23.477,103.32L23.477,103.32z M20.952,96.805l-2.426-8.301l-3.379,10.245
		C16.846,97.275,18.781,96.629,20.952,96.805L20.952,96.805z"/>
</g>
</svg>
