<?xml version="1.0" encoding="utf-8"?>
<!-- Generator: Adobe Illustrator 19.1.0, SVG Export Plug-In . SVG Version: 6.00 Build 0)  -->
<svg version="1.1" id="Layer_2" xmlns="http://www.w3.org/2000/svg" xmlns:xlink="http://www.w3.org/1999/xlink" x="0px" y="0px"
	width="271" height="32"
	viewBox="1.521 343.794 605.001 71.553" enable-background="new 1.521 343.794 605.001 71.553" xml:space="preserve">
<g>
	<g>
		<path fill="#00BCDD" d="M91.177,370.995c0-8.714-2.527-17.336-7.244-24.664c-2.192-3.406-7.318-3.446-9.264,0.268
			c-1.87,3.568,1.257,6.665,2.683,9.746c3.668,7.924,4.215,17.122,1.519,25.427c-0.644,1.983-1.466,3.908-2.453,5.745
			c-0.734,1.365-1.744,3.778-3.754,2.855c-2.132-0.979-0.694-3.025,0.056-4.376c1.097-1.977,1.977-4.074,2.617-6.243
			c2.473-8.376,1.251-17.652-3.377-25.067c-2.379-3.28-7.537-2.774-9.196,0.952c-0.77,1.73-0.562,3.767,0.561,5.294
			c1.132,1.979,1.924,4.151,2.336,6.393c0.792,4.312,0.171,8.852-1.805,12.769c-0.694,1.374-2.192,2.558-3.576,1.083
			c-1.282-1.365,0.259-3.182,0.759-4.543c1.514-4.113,1.276-8.821-0.649-12.758c-1.455-2.975-6.486-4.446-8.112-0.766
			c-1.045,2.363-0.671,5.556-0.67,8.14c0.001,3.908,0.001,7.816,0.002,11.723c0.002,9.154,0.003,18.309,0.005,27.463
			c0,1.636,0.001,3.272,0.001,4.908C73.984,413.227,91.254,393.232,91.177,370.995z M87.87,371.357
			c-0.092,19.248-14.022,36.395-32.942,40.172c0-14.309,0-28.618,0-42.926c0-1.212-0.156-2.497,0.159-3.673
			c0.486-1.815,2.415,0.388,2.741,1.197c0.741,1.839,0.994,3.978,0.835,5.946c-0.293,3.622-3.73,7.316-1.266,10.817
			c1.082,1.537,2.941,2.418,4.816,2.255c2.236-0.194,3.632-1.648,4.588-3.549c1.967-3.913,2.798-8.351,2.416-12.711
			c-0.182-2.08-0.636-4.136-1.356-6.097c-0.357-0.973-0.78-1.923-1.265-2.839c-0.407-0.768-1.069-1.539-0.914-2.467
			c0.25-1.678,2.507-2.317,3.534-0.917c1.187,1.933,2.132,4.014,2.808,6.179c1.302,4.172,1.596,8.644,0.854,12.951
			c-0.355,2.062-0.946,4.083-1.757,6.012c-0.783,1.861-2.283,3.602-2.776,5.547c-0.924,3.645,2.332,7.219,6.063,6.563
			c4.021-0.707,5.873-6.214,7.109-9.555c1.507-4.073,2.309-8.399,2.368-12.741c0.059-4.345-0.614-8.697-2.004-12.815
			c-0.662-1.962-1.486-3.869-2.461-5.696c-0.717-1.344-2.707-3.369-1.741-4.983c1.149-1.921,3.021-0.62,3.848,0.712
			c1.192,1.92,2.23,3.935,3.099,6.021c1.667,3.999,2.707,8.254,3.08,12.57C87.821,368.672,87.836,370.012,87.87,371.357z"/>
		<path fill="#00BCDD" d="M1.521,370.995c0-8.714,2.529-17.335,7.242-24.664c2.191-3.407,7.32-3.444,9.264,0.268
			c1.869,3.568-1.255,6.664-2.681,9.746c-3.667,7.927-4.214,17.12-1.519,25.427c0.644,1.983,1.465,3.908,2.452,5.745
			c0.731,1.362,1.746,3.78,3.753,2.855c2.131-0.982,0.699-3.022-0.053-4.376c-1.098-1.977-1.978-4.074-2.619-6.243
			c-2.473-8.375-1.252-17.653,3.377-25.067c2.377-3.281,7.538-2.773,9.197,0.952c0.77,1.729,0.562,3.767-0.557,5.294
			c-1.135,1.979-1.932,4.15-2.346,6.393c-0.798,4.314-0.17,8.854,1.815,12.769c0.696,1.372,2.182,2.56,3.571,1.083
			c1.284-1.365-0.253-3.182-0.755-4.543c-1.517-4.108-1.282-8.824,0.644-12.758c1.457-2.976,6.485-4.444,8.115-0.766
			c1.046,2.36,0.67,5.558,0.669,8.14c-0.001,3.908-0.001,7.816-0.002,11.723c-0.001,9.154-0.003,18.309-0.004,27.463
			c0,1.636,0,3.272-0.001,4.908C18.709,413.235,1.446,393.228,1.521,370.995z M4.828,371.357
			c0.088,19.251,14.021,36.395,32.942,40.172c0-14.309,0-28.618,0-42.926c0-1.211,0.158-2.499-0.158-3.673
			c-0.489-1.814-2.417,0.388-2.744,1.197c-0.742,1.839-0.998,3.979-0.837,5.946c0.296,3.621,3.731,7.316,1.268,10.817
			c-1.083,1.539-2.941,2.418-4.818,2.255c-2.235-0.194-3.627-1.649-4.583-3.549c-1.968-3.913-2.804-8.349-2.421-12.711
			c0.183-2.08,0.637-4.136,1.356-6.097c0.357-0.973,0.779-1.923,1.263-2.839c0.411-0.778,1.062-1.529,0.924-2.467
			c-0.258-1.68-2.512-2.313-3.545-0.917c-1.183,1.934-2.127,4.015-2.803,6.179c-1.304,4.173-1.601,8.643-0.856,12.951
			c0.356,2.062,0.949,4.083,1.761,6.012c0.783,1.861,2.281,3.603,2.775,5.547c0.925,3.645-2.33,7.219-6.062,6.563
			c-4.021-0.707-5.874-6.214-7.111-9.555c-1.507-4.073-2.307-8.399-2.366-12.741c-0.059-4.345,0.613-8.697,2.004-12.815
			c0.662-1.962,1.486-3.869,2.46-5.696c0.716-1.343,2.709-3.37,1.74-4.983c-1.151-1.918-3.023-0.624-3.852,0.712
			c-1.191,1.92-2.228,3.935-3.096,6.021c-1.664,4-2.701,8.254-3.072,12.57C4.883,368.673,4.888,370.013,4.828,371.357z"/>
	</g>
	<g>
		<g>
			<g>
				<path fill="#1E252B" d="M367.945,379.151c0-10.168,1.641-22.175,13.01-25.43c5.981-1.712,13.906-1.575,19.252,1.942
					c4.615,3.035,6.233,8.448,6.295,13.727c0.001,0.12,0.001,0.24,0.002,0.36c-3.461,0-6.921,0-10.382,0
					c0-3.119-0.89-6.544-3.716-8.27c-1.93-1.179-4.274-1.206-6.456-0.931c-3.911,0.494-5.552,3.311-6.238,6.962
					c-0.619,3.293-0.682,6.695-0.709,10.035c-0.03,3.775-0.023,7.595,0.49,11.343c0.532,3.885,1.805,7.925,6.112,8.768
					c2.663,0.521,5.634,0.337,7.66-1.661c2.075-2.046,2.847-5.181,3.016-8.004c0.032-0.528,0.93-0.284,1.39-0.284
					c1.257,0,2.514,0,3.771,0c1.917,0,3.834,0,5.751,0c0,5.725-1.799,11.575-6.808,14.836c-5.241,3.412-12.7,3.71-18.618,2.241
					c-5.196-1.289-9.267-4.662-11.397-9.579c-1.949-4.501-2.345-9.536-2.416-14.385
					C367.948,380.264,367.945,379.708,367.945,379.151z"/>
			</g>
		</g>
		<path fill="#1E252B" d="M144.583,362.784h-14.271v42.306h-10.684v-42.306h-14.28v-8.928c6.842,0,13.685,0,20.527,0
			c4.523,0,9.046,0,13.568,0c1.361,0,2.723,0,4.084,0c0.638,0,1.055-0.25,1.055,0.434
			C144.583,357.12,144.583,359.952,144.583,362.784z"/>
		<path fill="#1E252B" d="M191.538,405.09h-10.677v-21.438h-18.477v21.438H151.71v-51.235h10.674v20.943h18.477v-20.943
			c3.526,0,7.052,0,10.578,0c0.215,0,0.099,4.252,0.099,4.614c0,9.002,0,18.003,0,27.005
			C191.538,392.012,191.538,398.551,191.538,405.09z"/>
		<path fill="#1E252B" d="M244.941,405.09h-11.136l-3.218-9.068h-19.412l-3.297,9.068h-11.133l19.903-51.235
			c1.786,0,3.573,0,5.359,0c0.422,0,2.885-0.294,3.05,0.13c0.761,1.955,1.521,3.91,2.282,5.865
			c3.344,8.595,6.688,17.189,10.032,25.784C239.894,392.119,242.418,398.605,244.941,405.09z M227.781,387.587l-6.713-18.619
			c-2.297,6.206-4.595,12.413-6.892,18.619C218.711,387.587,223.246,387.587,227.781,387.587z"/>
		<path fill="#1E252B" d="M282.893,405.09h-32.707v-51.235h10.684v42.306c5.814,0,11.629,0,17.443,0c1.238,0,2.477,0,3.715,0
			c0.617,0,0.865-0.206,0.865,0.434C282.893,399.427,282.893,402.258,282.893,405.09z"/>
		<path fill="#1E252B" d="M338.023,405.09h-10.678v-29.872l-10.423,19.438h-7.226l-10.494-19.438v29.872h-10.685v-51.235h10.535
			l14.242,27.691l14.199-27.691c3.478,0,6.956,0,10.433,0c0.212,0,0.097,4.253,0.097,4.614c0,9.002,0,18.003,0,27.005
			C338.023,392.012,338.023,398.551,338.023,405.09z"/>
		<path fill="#1E252B" d="M359.901,405.09h-10.676v-51.235c3.526,0,7.051,0,10.577,0c0.215,0,0.099,4.252,0.099,4.614
			c0,9.002,0,18.003,0,27.005C359.901,392.012,359.901,398.551,359.901,405.09z"/>
	</g>
	<g>
		<path fill="#1E252B" d="M452.085,405.083h-33.762v-51.232h5.845V400.2c5.895,0,11.789,0,17.684,0c3.07,0,6.139,0,9.209,0
			c0.51,0,1.025-0.231,1.025,0.335C452.085,402.051,452.085,403.567,452.085,405.083z"/>
		<path fill="#1E252B" d="M492.709,405.083h-6.219l-4.381-11.595h-23.87l-4.386,11.595h-6.18l20.08-51.232c0.77,0,1.54,0,2.31,0
			c0.479,0,2.218-0.294,2.605,0c0.225,0.171,0.378,0.967,0.477,1.219c1.085,2.773,2.169,5.546,3.254,8.319
			c3.494,8.932,6.988,17.863,10.482,26.795C488.823,395.15,490.766,400.117,492.709,405.083z M480.421,388.744l-10.119-27.055
			c-3.434,9.018-6.869,18.037-10.303,27.055C466.807,388.744,473.614,388.744,480.421,388.744z"/>
		<path fill="#1E252B" d="M537.493,390.922c0,6.7-3.96,11.824-10.464,13.485c-3.105,0.793-6.295,0.677-9.468,0.677
			c-5.86,0-11.72,0-17.58,0v-51.232h20.575c6.469,0,13.284,2.648,15.446,9.262c2.077,6.354-0.912,13.424-7.391,15.617
			C533.909,380.547,537.493,385.273,537.493,390.922z M530.82,367.591c0-3.961-2.156-6.945-5.928-8.171
			c-2.229-0.725-4.542-0.683-6.852-0.683c-4.071,0-8.141,0-12.212,0v17.778h14.275C525.664,376.515,530.82,373.685,530.82,367.591z
			 M531.644,390.747c0-4.566-2.982-7.93-7.362-8.957c-2.055-0.482-4.175-0.389-6.269-0.389c-4.061,0-8.123,0-12.184,0V400.2h14.852
			C526.418,400.2,531.644,396.956,531.644,390.747z"/>
		<path fill="#1E252B" d="M581.111,390.994c0,8.323-6.931,13.181-14.56,14.23c-8.32,1.144-16.838-0.625-23.059-6.466
			c1.337-1.253,2.673-2.507,4.01-3.76c4.48,4.207,9.86,5.843,15.946,5.602c4.762-0.189,10.38-2.045,11.583-7.268
			c0.589-2.556,0.201-5.721-1.516-7.787c-1.636-1.968-4.043-2.627-6.454-3.032c-2.627-0.441-5.271-0.79-7.905-1.183
			c-4.856-0.732-10.192-2.499-12.707-7.069c-2.522-4.585-1.871-10.932,1.353-15.002c3.458-4.366,9.312-5.828,14.647-5.828
			c6.096,0,11.566,1.607,16.267,5.587c-1.25,1.184-2.5,2.367-3.749,3.551c-4.106-3.52-9.501-4.876-14.839-4.282
			c-5.145,0.572-9.405,3.895-9.405,9.374c0,8.366,9.543,8.677,15.779,9.557c3.86,0.529,7.692,1.508,10.66,4.172
			C579.908,383.856,581.111,387.36,581.111,390.994z"/>
	</g>
	<g>
		<path fill="#1E252B" d="M590.882,364.561h-1.844v-9.215h-3.131v-1.586h8.135v1.586c-1.041,0-2.083,0-3.124,0
			c-0.076,0-0.036,2.129-0.036,2.301C590.882,359.951,590.882,362.256,590.882,364.561z M599.869,364.561l-3.01-8.376h-0.121
			l0.089,1.934v6.442h-1.781v-10.802h2.801l2.936,8.375l3.04-8.375h2.698v10.802h-1.902v-6.292l0.091-2.054h-0.121
			c-0.649,1.713-1.298,3.426-1.947,5.139c-0.354,0.934-0.708,1.868-1.062,2.802C601.311,364.866,600.581,364.561,599.869,364.561z"
			/>
	</g>
</g>
</svg>
