<?xml version="1.0" encoding="utf-8"?>
<!-- Generator: Adobe Illustrator 22.1.0, SVG Export Plug-In . SVG Version: 6.00 Build 0)  -->
<svg version="1.1" id="Layer_1" xmlns="http://www.w3.org/2000/svg" xmlns:xlink="http://www.w3.org/1999/xlink" x="0px" y="0px"
	 width="365px" height="89.8px" viewBox="0 0 365 89.8" style="enable-background:new 0 0 365 89.8;" xml:space="preserve">
<style type="text/css">
	.st0{fill:#414042;}
</style>
<g>
	<polygon class="st0" points="182,45.7 177.4,55.5 173.2,55.5 172.7,45.7 172.6,45.7 170.5,55.5 166.1,55.5 169.2,40.8 176.4,40.8 
		176.5,49.3 176.7,49.3 180.3,40.8 187.7,40.8 184.7,55.5 180.1,55.5 182.2,45.7 	"/>
	<path class="st0" d="M200.9,49.8l-0.3-5.6h-0.2l-2.7,5.6H200.9z M198,40.8h6.7l1,14.7H201l-0.1-2.6h-4.3l-1.2,2.6h-4.5L198,40.8z"
		/>
	<polygon class="st0" points="235,44.3 231.7,44.3 232.5,40.8 243.7,40.8 243,44.3 239.8,44.3 237.4,55.5 232.6,55.5 	"/>
	<polygon class="st0" points="262.9,40.8 269.4,40.8 270.8,49.6 270.9,49.6 272.8,40.8 277.3,40.8 274.3,55.5 267.8,55.5 
		266.5,46.5 266.4,46.5 264.5,55.5 259.8,55.5 	"/>
	<path class="st0" d="M220.1,46.9c1.4,0,1.9-0.7,1.9-1.6c0-0.7-0.4-1.1-1.4-1.1h-1.2l-0.6,2.7H220.1z M215.3,40.8h7.1
		c3.5,0,4.7,1.9,4.7,3.7c0,2.8-2.3,3.6-3.5,3.8v0.2c1.4,0.2,2,1.2,2,2.4c0,1-0.2,2-0.2,3.2c0,0.5,0.1,1.1,0.1,1.3h-5.1
		c0-0.1-0.1-0.6-0.1-0.9c0-1.2,0.3-2.1,0.3-3.4c0-0.6-0.2-1.2-1.2-1.2h-1.2l-1.1,5.5h-4.8L215.3,40.8z"/>
	<polygon class="st0" points="249.8,40.8 254.6,40.8 251.5,55.5 246.7,55.5 	"/>
	<polygon class="st0" points="6.6,40.8 11.4,40.8 9.1,52 13.8,52 13.1,55.5 3.5,55.5 	"/>
	<polygon class="st0" points="62.2,40.8 67,40.8 65.7,47.1 65.8,47.1 70,40.8 75.2,40.8 69.9,47.7 72.5,55.5 67.4,55.5 65.4,49 
		65.3,49 63.9,55.5 59.1,55.5 	"/>
	<polygon class="st0" points="87.1,50 84.2,50 83.1,55.5 78.3,55.5 81.3,40.8 86.1,40.8 85,46.3 87.9,46.3 89,40.8 93.8,40.8 
		90.7,55.5 85.9,55.5 	"/>
	<polygon class="st0" points="120.9,40.8 131,40.8 130.2,44.3 124.9,44.3 124.5,46.4 129.3,46.4 128.6,49.9 123.8,49.9 123.3,52 
		128.9,52 128.1,55.5 117.8,55.5 	"/>
	<polygon class="st0" points="102.5,40.8 112.6,40.8 111.8,44.3 106.5,44.3 106.1,46.4 110.9,46.4 110.2,49.9 105.4,49.9 104.9,52 
		110.5,52 109.7,55.5 99.4,55.5 	"/>
	<path class="st0" d="M26.1,52c2.1,0,3-5.3,3-6.5c0-0.7-0.3-1.3-1.2-1.3c-2.2,0-3,5.3-3,6.5C24.9,51.8,25.5,52,26.1,52 M28.4,40.6
		c3.6,0,5.5,2,5.5,5.2c0,3.9-2,9.9-8.3,9.9c-3.5,0-5.5-1.9-5.5-5.2C20.1,46.3,22.3,40.6,28.4,40.6"/>
	<path class="st0" d="M142.6,52h1.4c1.9,0,3.3-2.6,3.3-5.7c0-1.1-0.5-2-2.2-2h-0.9L142.6,52z M140.1,40.8h5.4c4.6,0,6.6,2.6,6.6,5.5
		c0,5.5-3.4,9.2-9.2,9.2h-5.9L140.1,40.8z"/>
	<path class="st0" d="M52.2,50c-0.8,4-3.7,5.7-7.1,5.7c-3.6,0-5.5-2-5.5-5.2c0-3.7,1.9-9.9,8.3-9.9c2.9,0,5.3,1.1,5.2,4.2
		c0,0.5-0.1,1.2-0.1,1.5h-4.5c0-0.1,0.1-0.5,0.1-0.9c0-0.8-0.6-1.1-1.2-1.1c-2.2,0-3,5.3-3,6.5c0,0.9,0.5,1.3,1.2,1.3
		c0.7,0,1.4-0.6,2-2H52.2z"/>
	<path class="st0" d="M317.8,77.3C317.6,77.6,317.6,77.8,317.8,77.3"/>
	<path class="st0" d="M292.6,51.1C292.2,51.5,292.2,51.5,292.6,51.1"/>
	<path class="st0" d="M363,31.2h-32.6c4.3-16.1,8.2-29.8,8.2-29.8s-14.7,15.7-27.7,29.8l-129.4,0.3c0,0,0.1,0,0.1,0l-0.1,0
		l126.1,3.2c-9.7,10.3-14.8,16.2-15,16.4l0.1,0c0.4-0.4,17.9-16.3,17.9-16.3l15.4,0.4l-2.3,12.1L251.6,88c-0.2,0.1-0.3,0.2-0.3,0.2
		c0,0,57.1-30,71.5-37.3c0,0-5.1,26.4-5.1,26.5c0,0,0,0,0-0.1l0,0.1l0.1-0.3c0.5-1.7,3.5-12.1,7.6-27.5C344.3,40,363,31.2,363,31.2
		 M329.2,17.8l-2.6,13.5h-12.2L329.2,17.8z M329.3,35.2l14.9,0.4l-17.7,10C327.4,42.1,328.3,38.8,329.3,35.2"/>
</g>
</svg>
